<svg xmlns="http://www.w3.org/2000/svg" viewBox="0 0 750 500"><g id="freepik--background-complete--inject-15"><path d="M673.73,339.78H493a5.87,5.87,0,0,1-5.86-5.86V70.65A5.86,5.86,0,0,1,493,64.79H673.73a5.86,5.86,0,0,1,5.87,5.86V333.92A5.87,5.87,0,0,1,673.73,339.78ZM493,65a5.61,5.61,0,0,0-5.61,5.61V333.92a5.61,5.61,0,0,0,5.61,5.61H673.73a5.62,5.62,0,0,0,5.62-5.61V70.65A5.62,5.62,0,0,0,673.73,65ZM465.31,339.78H284.56a5.87,5.87,0,0,1-5.86-5.86V70.65a5.86,5.86,0,0,1,5.86-5.86H465.31a5.86,5.86,0,0,1,5.86,5.86V333.92A5.87,5.87,0,0,1,465.31,339.78ZM284.56,65A5.61,5.61,0,0,0,279,70.65V333.92a5.61,5.61,0,0,0,5.61,5.61H465.31a5.61,5.61,0,0,0,5.61-5.61V70.65A5.61,5.61,0,0,0,465.31,65ZM257,339.78H76.27a5.87,5.87,0,0,1-5.87-5.86V70.65a5.86,5.86,0,0,1,5.87-5.86H257a5.86,5.86,0,0,1,5.86,5.86V333.92A5.87,5.87,0,0,1,257,339.78ZM76.27,65a5.62,5.62,0,0,0-5.62,5.61V333.92a5.62,5.62,0,0,0,5.62,5.61H257a5.61,5.61,0,0,0,5.61-5.61V70.65A5.61,5.61,0,0,0,257,65ZM750,400.85H0V401H750Zm-96.37,29.8h55.73v-.42H653.63ZM495,435.21h14.63v-.42H495ZM40.64,417.85h72.68v-.42H40.64Zm87.66,0H139v-.42H128.3ZM173.59,425H331.2v-.42H173.59Z" style="fill:#e0e0e0"></path><rect x="286.06" y="340.55" width="27.76" height="11.53" style="fill:#e0e0e0"></rect><rect x="301.48" y="329.11" width="27.76" height="11.53" style="fill:#e6e6e6"></rect><rect x="302.4" y="351.86" width="27.76" height="11.53" style="fill:#f5f5f5"></rect><rect x="598.82" y="82.94" width="27.76" height="11.53" style="fill:#e0e0e0"></rect><rect x="614.24" y="71.5" width="27.76" height="11.53" style="fill:#e6e6e6"></rect><rect x="615.16" y="94.25" width="27.76" height="11.53" style="fill:#f5f5f5"></rect><rect x="461.08" y="126.19" width="27.76" height="11.53" style="fill:#e0e0e0"></rect><rect x="477.43" y="137.5" width="27.76" height="11.53" style="fill:#f5f5f5"></rect><rect x="64.77" y="236.35" width="27.76" height="11.53" style="fill:#e6e6e6"></rect><rect x="78.64" y="247.88" width="27.76" height="11.53" style="fill:#f5f5f5"></rect><rect x="672.47" y="255.13" width="27.76" height="11.53" style="fill:#e6e6e6"></rect><rect x="686.35" y="266.66" width="27.76" height="11.53" style="fill:#f5f5f5"></rect><rect x="309.15" y="45.09" width="27.76" height="11.53" style="fill:#e6e6e6"></rect><rect x="323.03" y="56.61" width="27.76" height="11.53" style="fill:#f5f5f5"></rect><rect x="449.71" y="359.81" width="27.76" height="11.53" style="fill:#f5f5f5"></rect><rect x="648.9" y="151.69" width="27.76" height="11.53" style="fill:#f5f5f5"></rect><rect x="227.1" y="305.01" width="27.76" height="11.53" style="fill:#f5f5f5"></rect><path d="M512.34,441.8c0-.4-1.38-40.65-7.92-47-6.37-6.19-13.68-.23-14,0l-.65-.79c.08-.07,8.33-6.8,15.35,0,6.84,6.65,8.18,46.05,8.23,47.72Z" style="fill:#e0e0e0"></path><path d="M512.9,449.71c0-.48-4.47-48.32,13-68.37l.77.68c-17.18,19.72-12.8,67.12-12.75,67.59Z" style="fill:#e0e0e0"></path><path d="M512.25,444.65l-1-.06c0-.55,3.42-54.39-9.39-66.18l.69-.75C515.7,389.78,512.4,442.42,512.25,444.65Z" style="fill:#e0e0e0"></path><path d="M513.92,444.62h-1c0-1.49.42-36.37,10.33-42.05a7,7,0,0,1,6.41-.63c6,2.48,9,13.15,9.09,13.6l-1,.27c0-.11-3-10.63-8.49-12.92a6,6,0,0,0-5.51.57C514.34,408.85,513.93,444.27,513.92,444.62Z" style="fill:#e0e0e0"></path><path d="M510.06,444.65l-1-.06c0-.27,1.5-27.57-5.87-37.18-1.78-2.33-3.72-3.44-5.77-3.3-4.82.34-8.87,7.4-8.91,7.47l-.89-.5c.17-.31,4.35-7.62,9.73-8,2.4-.17,4.65,1.07,6.65,3.69C511.58,416.7,510.13,443.51,510.06,444.65Z" style="fill:#e0e0e0"></path><path d="M511.68,448.36c-.2-2.65-4.82-65,3.3-75.95l.83.61c-7.9,10.68-3.16,74.62-3.11,75.26Z" style="fill:#e0e0e0"></path><path d="M531.85,408.26s-4.87,1.79-3.42,6,16.85,11.22,16.85,11.22,6.45-5.91.52-15.53S532,405.23,531.85,408.26Z" style="fill:#ebebeb"></path><path d="M510.68,400.19s5.18-.22,5.48,4.25-11.24,16.84-11.24,16.84-8.23-3-6.46-14.13S509.39,397.44,510.68,400.19Z" style="fill:#ebebeb"></path><path d="M506.28,378.79s3.46-.37,3.18-2.48-13.44-7.52-21.21,1.24c0,0,5,8.55,12.17,8.66S506.28,378.79,506.28,378.79Z" style="fill:#ebebeb"></path><path d="M512.73,373.68s-3.13,1.51-4-.42,7.43-13.5,18.65-10.17c0,0,.3,9.88-5.74,13.78S512.73,373.68,512.73,373.68Z" style="fill:#ebebeb"></path><path d="M496.36,406.56s2.38-1.93-.19-2.87S481,403,480.82,415.53c0,0,14.72,2.45,16.54-2.32S496.36,406.56,496.36,406.56Z" style="fill:#ebebeb"></path><path d="M526.37,378.48s-2.39-1.93.19-2.87,15.21-.67,15.34,11.85c0,0-14.71,2.44-16.54-2.33S526.37,378.48,526.37,378.48Z" style="fill:#ebebeb"></path><path d="M518.59,388.56s-.21-2.34,1.68-1.42,8.48,8,1.65,14.77c0,0-9.19-6.81-7.54-10.36S518.59,388.56,518.59,388.56Z" style="fill:#ebebeb"></path><path d="M494.22,391.9s1.43-1.87-.66-2.1-11.45,2.27-9.27,11.61c0,0,11.4-.85,11.89-4.74S494.22,391.9,494.22,391.9Z" style="fill:#ebebeb"></path><polygon points="523.51 462.68 500.5 462.68 494.38 434.45 529.05 434.45 523.51 462.68" style="fill:#f0f0f0"></polygon><rect x="492.3" y="434.04" width="38.75" height="8.12" style="fill:#e6e6e6"></rect></g><g id="freepik--Shadow--inject-15"><path d="M679.18,468.8c0,3.39-136.19,6.14-304.18,6.14S70.82,472.19,70.82,468.8,207,462.67,375,462.67,679.18,465.42,679.18,468.8Z" style="fill:#f5f5f5"></path></g><g id="freepik--speech-bubble--inject-15"><path d="M658.45,217.93l-.24-.23-6.35.09,2.16-5.62a20,20,0,1,1,4.43,5.76Zm35.34-19.18a.25.25,0,0,0,.23-.27,20.17,20.17,0,0,0-10.8-15.58.25.25,0,1,0-.22.44,19.67,19.67,0,0,1,10.52,15.19.24.24,0,0,0,.25.22Zm.35,5.74a7.64,7.64,0,0,0,.08-3.05.25.25,0,1,0-.49.09,7,7,0,0,1-.08,2.85.25.25,0,0,0,.19.3h0A.26.26,0,0,0,694.14,204.49Z" style="fill:#92E3A9"></path><polygon points="671.4 211.54 662.23 204.71 664.61 201.51 670.76 206.09 679.22 196.01 682.28 198.57 671.4 211.54" style="fill:#fff"></polygon></g><g id="freepik--Plant--inject-15"><path d="M264.62,412.34c2.43-3,7.14-5,12.31-6-.41,1.48-.1,2.85.77,3.18s2.28-.67,2.92-2.34a5.11,5.11,0,0,0,.32-1.37c5.21-.42,10.42.17,13.9,1.84,0,0-3.41,3.07-7.26,11.14h-.36c-2.5,0-4.51,1.23-4.49,2.7,0,1.06,1.1,2,2.66,2.37-.2.52-.41,1-.61,1.59-3.67,9.94-13.47,2.75-13.38-4.05C271.4,421.42,259.16,419.07,264.62,412.34Z" style="fill:#92E3A9"></path><path d="M252.55,399.51c-3-3.24-8.52-5.17-14.49-5.88.58,1.65.33,3.23-.64,3.68s-2.65-.6-3.5-2.45a6,6,0,0,1-.47-1.54c-6-.1-11.87,1-15.7,3.14,0,0,4.11,3.24,9.11,12.15l.4,0c2.85-.16,5.23,1.06,5.33,2.73.06,1.22-1.11,2.33-2.86,2.91.27.57.54,1.16.81,1.76,4.93,11.06,15.57,2.14,15-5.61C245.5,410.37,259.27,406.77,252.55,399.51Z" style="fill:#92E3A9"></path><path d="M245.26,397.08c1.27-6.22,6.61-12.7,13.41-18,.53,2.47,2,4.22,3.54,4.05,1.7-.2,2.81-2.71,2.48-5.62a8.53,8.53,0,0,0-.57-2.25c7.27-4.56,15.32-7.64,21.65-7.84,0,0-2.64,7.05-2.14,21.73l-.53.26c-3.62,1.93-5.64,5.21-4.51,7.33.83,1.55,3.11,2,5.68,1.45.1.9.2,1.82.32,2.77,2.18,17.27-17.55,14.23-22.57,4.24C262,405.17,242.4,411,245.26,397.08Z" style="fill:#92E3A9"></path><path d="M245.26,397.08c1.27-6.22,6.61-12.7,13.41-18,.53,2.47,2,4.22,3.54,4.05,1.7-.2,2.81-2.71,2.48-5.62a8.53,8.53,0,0,0-.57-2.25c7.27-4.56,15.32-7.64,21.65-7.84,0,0-2.64,7.05-2.14,21.73l-.53.26c-3.62,1.93-5.64,5.21-4.51,7.33.83,1.55,3.11,2,5.68,1.45.1.9.2,1.82.32,2.77,2.18,17.27-17.55,14.23-22.57,4.24C262,405.17,242.4,411,245.26,397.08Z" style="fill:#fff;opacity:0.2"></path><path d="M283.85,412.32a.26.26,0,0,0-.35-.08c-7.34,4.71-22,15.25-24.64,17.19a66.51,66.51,0,0,1,13.94-45.18l-.39-.31a67,67,0,0,0-14.08,44.6c-2.84-7.34-10.62-20.88-23.12-27.37a.23.23,0,0,0-.33.11.24.24,0,0,0,.1.33c13.14,6.82,21,21.57,23.36,28.41,0,0,.05.05.08.07a60.59,60.59,0,0,0,.81,6.44l.49-.08a60.59,60.59,0,0,1-.81-6.44c1.83-1.33,17.26-12.48,24.86-17.35A.25.25,0,0,0,283.85,412.32Z" style="fill:#263238"></path><polygon points="279.74 442.33 238.22 442.33 238.24 434.72 279.69 434.72 279.74 442.33" style="fill:#263238"></polygon><polygon points="241.23 439.85 247.72 466.83 271.6 466.83 277.39 439.85 241.23 439.85" style="fill:#263238"></polygon><polygon points="241.83 442.33 276.86 442.33 276.21 445.31 242.45 445.31 241.83 442.33" style="opacity:0.30000000000000004"></polygon><path d="M244.23,433.41h-3.69a.25.25,0,0,1,0-.5h3.69a.25.25,0,0,1,0,.5Zm12-.25a.25.25,0,0,0-.25-.25h-10.1a.25.25,0,0,0,0,.5H256A.25.25,0,0,0,256.28,433.16Z" style="fill:#92E3A9"></path></g><g id="freepik--magnifying-glass--inject-15"><path d="M540.61,231.13a41.09,41.09,0,0,1-40.79,25.32,40.39,40.39,0,0,1-12.9-3,41.14,41.14,0,1,1,53.74-22.29Z" style="fill:#92E3A9"></path><path d="M540.61,231.13a41.09,41.09,0,0,1-40.79,25.32,40.39,40.39,0,0,1-12.9-3,41.14,41.14,0,1,1,53.74-22.29Z" style="fill:#fff;opacity:0.7000000000000001"></path><path d="M520.38,171.68l-.12-.06a46.09,46.09,0,0,0-37.72,84c-2.94,4.53-4.81,9.6-7.56,14.2-1.51,2.64-20.64,39.5-22.07,42.17l-2.18,4a5,5,0,0,0-.26,4.84,4.17,4.17,0,0,0,4.9,2.19,5.77,5.77,0,0,0,4-3.19l2.08-4.05c1.41-2.68,20.23-39.67,21.56-42.39,2.29-5,4.5-10,6.35-15.1a46.08,46.08,0,0,0,31-86.66Zm19.38,57.93a40.14,40.14,0,0,1-52.39,21.84l-.07,0v.05a40.13,40.13,0,1,1,52.46-21.86Z" style="fill:#263238"></path><path d="M541.6,180.44c-.78.57-1.53-.73-.76-1.29L556,168c.78-.57,1.53.73.76,1.29L541.6,180.44Zm4.58,7.29h11.87a.75.75,0,0,0,0-1.5H546.18a.75.75,0,0,0,0,1.5Zm-9.75-13.36,2-12.05c.16-.95-1.29-1.35-1.45-.4q-1,6-2,12.05c-.16.94,1.29,1.35,1.44.4Z" style="fill:#263238"></path></g><g id="freepik--Rocket--inject-15"><path d="M387.57,442.72H348.86a2096.38,2096.38,0,0,0,0-241h38.71C381,274.43,381.22,355,387.57,442.72Z" style="fill:#92E3A9"></path><path d="M387.57,442.72H348.86a2096.38,2096.38,0,0,0,0-241h38.71C381,274.43,381.22,355,387.57,442.72Z" style="fill:#fff;opacity:0.8"></path><path d="M475.05,436.11c-7.5-2.58-22.51-2.11-22.51-2.11s-4.69-6.84-8.53-9.88c-10.65-8.45-26.85-9-38.08-1.36-10.87-20.22-34.62-32.69-57.43-30.16s-43.26,19.91-49.43,42c-19.07-3.68-39.34,13.07-39.31,32.49L498,468C499.14,454.45,491.65,441.82,475.05,436.11Z" style="fill:#92E3A9"></path><g style="opacity:0.7000000000000001"><path d="M475.05,436.11c-7.5-2.58-22.51-2.11-22.51-2.11s-4.69-6.84-8.53-9.88c-10.65-8.45-26.85-9-38.08-1.36-10.87-20.22-34.62-32.69-57.43-30.16s-43.26,19.91-49.43,42c-19.07-3.68-39.34,13.07-39.31,32.49L498,468C499.14,454.45,491.65,441.82,475.05,436.11Z" style="fill:#fff"></path></g><path d="M341.32,370.75a4.93,4.93,0,0,0-5.88-1.17,4.88,4.88,0,0,0-3,4.21,4.67,4.67,0,0,0,2.59,3.94,5.75,5.75,0,0,0,4.8.07,4.71,4.71,0,0,0,2.73-2.83A4.29,4.29,0,0,0,341.32,370.75Z" style="fill:#92E3A9"></path><g style="opacity:0.8"><path d="M341.32,370.75a4.93,4.93,0,0,0-5.88-1.17,4.88,4.88,0,0,0-3,4.21,4.67,4.67,0,0,0,2.59,3.94,5.75,5.75,0,0,0,4.8.07,4.71,4.71,0,0,0,2.73-2.83A4.29,4.29,0,0,0,341.32,370.75Z" style="fill:#fff"></path></g><path d="M343.31,122.11a40.28,40.28,0,0,0-18.92,25.7c-3.19,13.39-2.23,38.66,3.52,40.69s6.39-13.62,6.44-19.18,5.26-12.36,9.91-12.77C344.26,156.55,345.17,127.19,343.31,122.11Z" style="fill:#92E3A9"></path><path d="M393.12,122.11A40.31,40.31,0,0,1,412,147.81c3.19,13.39,2.22,38.66-3.53,40.69s-6.39-13.62-6.44-19.18-5.26-12.36-9.9-12.77C392.17,156.55,391.26,127.19,393.12,122.11Z" style="fill:#92E3A9"></path><path d="M388.12,177.92H347.94s-7.35-28.27-4.47-60a78.11,78.11,0,0,1,6.32-24.34c0-.12.1-.23.15-.35.84-1.91,1.73-3.72,2.63-5.43a86,86,0,0,1,13.24-18.59,3.17,3.17,0,0,1,4.49-.3,2.76,2.76,0,0,1,.29.3,86.54,86.54,0,0,1,13.58,19.23q1.36,2.64,2.63,5.55l.15.35a78.23,78.23,0,0,1,6,23.58C395.81,149.67,388.12,177.92,388.12,177.92Z" style="fill:#92E3A9"></path><path d="M388.12,177.92H347.94s-7.35-28.27-4.47-60a78.11,78.11,0,0,1,6.32-24.34c0-.12.1-.23.15-.35.84-1.91,1.73-3.72,2.63-5.43a86,86,0,0,1,13.24-18.59,3.17,3.17,0,0,1,4.49-.3,2.76,2.76,0,0,1,.29.3,86.54,86.54,0,0,1,13.58,19.23q1.36,2.64,2.63,5.55l.15.35a78.23,78.23,0,0,1,6,23.58C395.81,149.67,388.12,177.92,388.12,177.92Z" style="fill:#fff;opacity:0.7000000000000001"></path><path d="M388.21,177.92H348.59s-3.06,6.59-.17,10.76H358a4.83,4.83,0,0,0,.43,3.78h20.31a6.08,6.08,0,0,0,.19-3.78H389C391.26,183.3,388.21,177.92,388.21,177.92Z" style="fill:#263238"></path><path d="M378.79,192.46H358.53c-4.09,2.17-14.29,7.37-12.87,16.17h46.52C393.6,199.83,382.89,194.63,378.79,192.46Z" style="fill:#92E3A9"></path><rect x="343.92" y="206.77" width="49.66" height="3.83" style="fill:#263238"></rect><path d="M384.17,88.47c-3.67,2.62-9.27,5.56-16,5.56a23,23,0,0,1-15.63-6.22c.38-.72.77-1.43,1.16-2.11l.18-.32A85.65,85.65,0,0,1,365.8,69.22a3.18,3.18,0,0,1,4.49-.29,2.76,2.76,0,0,1,.3.29,85.21,85.21,0,0,1,11.92,16.2l.18.33C383.19,86.63,383.69,87.54,384.17,88.47Z" style="fill:#92E3A9"></path><path d="M353.55,173.89h30.13v.46H353.55Zm29-88.45a24.77,24.77,0,0,1-9.86,4.23,24.24,24.24,0,0,1-14.72-1.91,24.66,24.66,0,0,1-4-2.37l-.18.32a25.14,25.14,0,0,0,10.45,4.39A24.65,24.65,0,0,0,379,88a25.42,25.42,0,0,0,3.73-2.21ZM387.46,123c-1.84-18.6-3.28-26-3.45-26.86.69-.37,1.34-.76,1.91-1.13.35-.21.69-.43,1-.65l-.15-.35c-.34.23-.69.48-1,.69a33,33,0,0,1-17.38,5.3A28.52,28.52,0,0,1,352,94.88a26.33,26.33,0,0,1-2.11-1.62c-.06.12-.11.23-.16.35.61.51,1.29,1,2.05,1.57.48.33,1,.68,1.59,1-.21,1-1.63,8.53-3.44,26.78-1.43,14.26-.12,28.44,1.21,37.83a168.28,168.28,0,0,0,3.26,17.12.17.17,0,0,0,.17.13h0a.18.18,0,0,0,.13-.21,165,165,0,0,1-3.26-17.09c-1.33-9.37-2.61-23.51-1.2-37.73,1.75-17.67,3.14-25.25,3.4-26.66a28.66,28.66,0,0,0,14.66,4,32.62,32.62,0,0,0,15.3-4c.24,1.21,1.64,8.75,3.42,26.71,1.42,14.22.13,28.37-1.2,37.73a168.38,168.38,0,0,1-3.25,17.1.17.17,0,0,0,.12.21h0A.18.18,0,0,0,383,178a169,169,0,0,0,3.26-17.13C387.58,151.45,388.87,137.26,387.46,123Zm-5.79,6.43h0a13.31,13.31,0,1,0-13.3,13.32A13.3,13.3,0,0,0,381.67,129.43Zm-.34,0h0a13,13,0,1,1-13-13A13,13,0,0,1,381.33,129.44Z" style="fill:#92E3A9"></path><path d="M378.45,129.44a10.08,10.08,0,0,1-10.08,10.08h-.24a10.06,10.06,0,0,1-4.84-1.37,10.28,10.28,0,0,1-2.94-2.59,10,10,0,0,1-2.06-6.12,9.18,9.18,0,0,1,.07-1.17,10.09,10.09,0,0,1,8.83-8.83,9.34,9.34,0,0,1,1.18-.07,10.08,10.08,0,0,1,10.07,9.84A1.77,1.77,0,0,1,378.45,129.44Z" style="fill:#92E3A9"></path><path d="M374.48,121.45l-14.13,14.12a10,10,0,0,1-2.06-6.11,9.18,9.18,0,0,1,.07-1.17l8.83-8.84a11.66,11.66,0,0,1,1.18-.06A10,10,0,0,1,374.48,121.45Zm2.59,2.92-13.78,13.77a9.85,9.85,0,0,0,4.84,1.37l10.31-10.3A9.92,9.92,0,0,0,377.07,124.37Z" style="fill:#fff;isolation:isolate;opacity:0.1"></path></g><g id="freepik--light-bulb--inject-15"><path d="M260.07,91.82a26.41,26.41,0,0,0-17.29,46.63c1.12.92,2.82,2,2.79,4.34,0,.07.11,5.77.11,5.77h27.77s.12-5.92.12-6c0-2,1.57-2.91,2.73-3.82a26.37,26.37,0,0,0-16.23-46.93Z" style="fill:#92E3A9"></path><path d="M260.07,91.82a26.41,26.41,0,0,0-17.29,46.63c1.12.92,2.82,2,2.79,4.34,0,.07.11,5.77.11,5.77h27.77s.12-5.92.12-6c0-2,1.57-2.91,2.73-3.82a26.37,26.37,0,0,0-16.23-46.93Z" style="fill:#fff;opacity:0.4"></path><path d="M273.19,103.2c0,5.14-6,9.32-13.48,9.32s-13.47-4.18-13.47-9.32,6-9.32,13.47-9.32S273.19,98.05,273.19,103.2Z" style="fill:#fff;isolation:isolate;opacity:0.2"></path><path d="M239.42,128.39A20.56,20.56,0,0,1,243.17,103l.34.37a20,20,0,0,0-3.66,24.75Z" style="fill:#fff"></path><path d="M267.36,142.94A86.67,86.67,0,0,1,264,132.13a5.59,5.59,0,0,1-7.71.26,45.88,45.88,0,0,1-1.8,10.54l-1-.28a45.06,45.06,0,0,0,1.78-11.08l-.56-.55c-3-3.1-4.36-6.93-3.71-10.26.25-1.29,1-2.58,2.23-2.54s1.88,1.07,2.24,3a45.64,45.64,0,0,1,.82,10,5.8,5.8,0,0,0,3.45,1.66,5.64,5.64,0,0,0,3.95-1.78c-.65-2.83-1.15-5.7-1.52-8.6a8.79,8.79,0,0,1,0-3.11,3,3,0,0,1,2.07-2.4c1.68-.37,3,1.41,3.5,3.34a12.47,12.47,0,0,1-2.91,11l0,0a88.36,88.36,0,0,0,3.43,11.27Zm-14.09-23.73c-.57,0-1.05.89-1.21,1.74-.57,3,.67,6.4,3.32,9.24a45,45,0,0,0-.81-8.82c-.2-1-.64-2.14-1.29-2.15Zm11.46-1.35-.21,0a2.11,2.11,0,0,0-1.3,1.66,8,8,0,0,0,0,2.75q.51,4,1.35,7.82a11.63,11.63,0,0,0,2.24-9.63C266.51,119.14,265.66,117.86,264.73,117.86Z" style="fill:#263238"></path><path d="M275,146.88H244.25a1.61,1.61,0,0,0-1.6,1.61v.14a1.61,1.61,0,0,0,1.27,1.57,1.62,1.62,0,0,0-.72,1.34v0a1.61,1.61,0,0,0,1.13,1.53,1.6,1.6,0,0,0-.69,1.31v0a1.61,1.61,0,0,0,1.61,1.61h.67a1.58,1.58,0,0,0-.71,1.33v0a1.6,1.6,0,0,0,1.6,1.6H250c2.28,3.4,6.18,6.58,10,6.35s7.28-3,9.22-6.35h3.24a1.6,1.6,0,0,0,1.6-1.6v0a1.58,1.58,0,0,0-.71-1.33H274a1.61,1.61,0,0,0,1.61-1.61v0a1.6,1.6,0,0,0-.69-1.31,1.61,1.61,0,0,0,1.13-1.53v0a1.62,1.62,0,0,0-.72-1.34,1.62,1.62,0,0,0,1.27-1.57v-.14A1.61,1.61,0,0,0,275,146.88Z" style="fill:#263238"></path><path d="M275,146.88H244.25a1.61,1.61,0,0,0-1.6,1.61v.14a1.61,1.61,0,0,0,1.27,1.57,1.62,1.62,0,0,0-.72,1.34v0a1.61,1.61,0,0,0,1.13,1.53,1.6,1.6,0,0,0-.69,1.31v0a1.61,1.61,0,0,0,1.61,1.61h.67a1.58,1.58,0,0,0-.71,1.33v0a1.6,1.6,0,0,0,1.6,1.6h25.66a1.6,1.6,0,0,0,1.6-1.6v0a1.58,1.58,0,0,0-.71-1.33H274a1.61,1.61,0,0,0,1.61-1.61v0a1.6,1.6,0,0,0-.69-1.31,1.61,1.61,0,0,0,1.13-1.53v0a1.62,1.62,0,0,0-.72-1.34,1.62,1.62,0,0,0,1.27-1.57v-.14A1.61,1.61,0,0,0,275,146.88Z" style="fill:#fff;opacity:0.30000000000000004"></path><path d="M245.06,82.29a.38.38,0,0,1,.53-.53l6,6c.35.34-.18.87-.53.53l-6-6Zm15.8,3.61V74.51a.38.38,0,0,0-.75,0V85.9a.38.38,0,0,0,.75,0Zm8.33,2.9,6.51-6.51a.38.38,0,0,0-.53-.53l-6.51,6.51a.38.38,0,0,0,.53.53Z" style="fill:#263238"></path></g><g id="freepik--Document--inject-15"><rect x="104.91" y="87.69" width="69.63" height="100.95" rx="3.83" transform="translate(26.54 -22.47) rotate(10.15)" style="fill:#263238"></rect><rect x="108.11" y="90.8" width="63.27" height="94.58" transform="translate(26.53 -22.47) rotate(10.15)" style="fill:#fff"></rect><path d="M132.06,85.53c-.29.44-2.73,8.9-2.73,8.9l36.45,7.15c-.43-.09.62-9.9.47-9.93Z" style="opacity:0.30000000000000004"></path><path d="M89.42,114a17.71,17.71,0,1,1,27.69-9.14l2.82,4.51-5.53,1-.17.24A17.71,17.71,0,0,1,89.42,114ZM80.31,99.89a.26.26,0,0,0,.23-.27,17.36,17.36,0,0,1,6.57-14.94.25.25,0,0,0,0-.35.27.27,0,0,0-.36,0A17.87,17.87,0,0,0,80,99.66a.25.25,0,0,0,.25.23Zm1,5.15a.25.25,0,0,0,.12-.33,6.24,6.24,0,0,1-.54-2.45.23.23,0,0,0-.26-.25.25.25,0,0,0-.24.25,6.61,6.61,0,0,0,.59,2.66.24.24,0,0,0,.23.14A.18.18,0,0,0,81.28,105Z" style="fill:#92E3A9"></path><path d="M89.42,114a17.71,17.71,0,1,1,27.69-9.14l2.82,4.51-5.53,1-.17.24A17.71,17.71,0,0,1,89.42,114ZM80.31,99.89a.26.26,0,0,0,.23-.27,17.36,17.36,0,0,1,6.57-14.94.25.25,0,0,0,0-.35.27.27,0,0,0-.36,0A17.87,17.87,0,0,0,80,99.66a.25.25,0,0,0,.25.23Zm1,5.15a.25.25,0,0,0,.12-.33,6.24,6.24,0,0,1-.54-2.45.23.23,0,0,0-.26-.25.25.25,0,0,0-.24.25,6.61,6.61,0,0,0,.59,2.66.24.24,0,0,0,.23.14A.18.18,0,0,0,81.28,105Z" style="fill:#fff;opacity:0.5"></path><polygon points="98.99 107.6 90.88 101.55 92.99 98.72 98.43 102.77 105.91 93.85 108.61 96.12 98.99 107.6" style="fill:#fff"></polygon><path d="M166.68,133l-47-9,.31-1.61,47,9Zm-8.44,37.62-47.12-8.44-.29,1.62L158,172.2Zm1.32-6.3-47.12-8.44-.29,1.62,47.12,8.44Zm1.33-6.31-47.12-8.44-.29,1.62,47.12,8.44Zm1.32-6.3-47.11-8.44-.29,1.62,47.11,8.44Zm1.33-6.31-47.12-8.43-.29,1.62L163.25,147Zm-6.36,31.24-47.12-8.44-.29,1.62,47.12,8.44Zm9.08-40.4-47-9-.31,1.62,47,9ZM164.37,141l-47-9-.31,1.61,47,9Zm5.9-30.39-47-9-.31,1.62,47,9ZM168,120.68l-47-9-.31,1.62,47,9ZM138.91,110l-16.56-3.17-.31,1.62,16.56,3.17Zm30.26,5.74-28.51-5.45-.31,1.61,28.51,5.46ZM137,120.26l-16.56-3.17-.31,1.62,16.56,3.17ZM167.25,126l-28.51-5.45-.31,1.61,28.51,5.46Z" style="fill:#263238"></path><polygon points="153.29 84.99 155.02 80.35 146.75 78.86 146.66 83.8 133.69 81.48 131.57 93.33 164.53 99.23 166.66 87.38 153.29 84.99" style="fill:#263238"></polygon></g><g id="freepik--text-4--inject-15"><rect x="417.28" y="270.97" width="118.02" height="41.74" style="fill:#92E3A9"></rect><path d="M449.45,289.78h-2.36v-1.39h6.41v1.39h-2.35v6h-1.7Zm10.67,4.61v1.36h-5.7v-7.36H460v1.37h-3.87v1.6h3.42v1.32h-3.42v1.71Zm2.08,1.25a4.1,4.1,0,0,1-1.31-.61l.58-1.29a3.73,3.73,0,0,0,1.13.56,4.21,4.21,0,0,0,1.3.21,2.12,2.12,0,0,0,1.07-.21.67.67,0,0,0,.35-.58.53.53,0,0,0-.21-.43,1.43,1.43,0,0,0-.52-.28,8.5,8.5,0,0,0-.87-.23c-.56-.14-1-.27-1.38-.4a2.33,2.33,0,0,1-.92-.64,1.78,1.78,0,0,1-.38-1.18,2.06,2.06,0,0,1,.35-1.16,2.37,2.37,0,0,1,1-.83,4.36,4.36,0,0,1,1.71-.3,5.32,5.32,0,0,1,1.38.17,4.05,4.05,0,0,1,1.18.48l-.53,1.29a4.17,4.17,0,0,0-2-.58,1.81,1.81,0,0,0-1.05.24.7.7,0,0,0-.35.61.59.59,0,0,0,.4.56,6.35,6.35,0,0,0,1.2.36,12.25,12.25,0,0,1,1.38.4,2.23,2.23,0,0,1,.92.63,1.73,1.73,0,0,1,.38,1.17,2,2,0,0,1-.35,1.15,2.42,2.42,0,0,1-1.06.82,4.18,4.18,0,0,1-1.71.31A6,6,0,0,1,462.2,295.64Zm7.4-5.86h-2.36v-1.39h6.41v1.39H471.3v6h-1.7Zm5-1.39h1.7v7.36h-1.7Zm10.19,0v7.36h-1.39l-3.67-4.46v4.46H478v-7.36h1.4l3.66,4.47v-4.47Zm6.72,3.57H493v3a4.54,4.54,0,0,1-1.39.7,5.48,5.48,0,0,1-1.59.24,4.38,4.38,0,0,1-2.06-.49,3.6,3.6,0,0,1-1.43-1.36,4,4,0,0,1,0-3.92,3.61,3.61,0,0,1,1.44-1.35,4.34,4.34,0,0,1,2.08-.49,4.71,4.71,0,0,1,1.76.32,3.52,3.52,0,0,1,1.32,1l-1.09,1a2.55,2.55,0,0,0-1.9-.83,2.65,2.65,0,0,0-1.25.29,2.12,2.12,0,0,0-.85.83,2.39,2.39,0,0,0-.31,1.23,2.36,2.36,0,0,0,.31,1.22,2.12,2.12,0,0,0,.84.84,2.5,2.5,0,0,0,1.24.3,2.74,2.74,0,0,0,1.32-.32Z" style="fill:#fff"></path><rect x="526.14" y="270.92" width="9.16" height="41.74" style="opacity:0.30000000000000004"></rect></g><g id="freepik--text-3--inject-15"><rect x="298.87" y="223.47" width="127.71" height="41.74" style="fill:#92E3A9"></rect><path d="M311.15,239.33h1.7v7.36h-1.7Zm10.14,7.36v-4.42l-2.16,3.64h-.77l-2.16-3.54v4.32H314.6v-7.36H316l2.75,4.57,2.71-4.57h1.4l0,7.36Zm8.23-7a2.64,2.64,0,0,1,1.11,3.76,2.49,2.49,0,0,1-1.11.93,4.23,4.23,0,0,1-1.7.32h-1.48v2h-1.7v-7.36h3.18A4.23,4.23,0,0,1,329.52,239.65Zm-.63,3.29a1.14,1.14,0,0,0,.4-.94,1.16,1.16,0,0,0-.4-.95,1.76,1.76,0,0,0-1.16-.33h-1.39v2.55h1.39A1.76,1.76,0,0,0,328.89,242.94Zm3.33-3.61h1.71v6h3.69v1.39h-5.4Zm12,6v1.37h-5.7v-7.36h5.56v1.37h-3.86v1.59h3.41v1.33h-3.41v1.7Zm8.05,1.37v-4.42l-2.16,3.64h-.77l-2.16-3.54v4.32h-1.59v-7.36H347l2.76,4.57,2.71-4.57h1.4l0,7.36Zm9-1.37v1.37h-5.7v-7.36h5.56v1.37h-3.86v1.59h3.41v1.33h-3.41v1.7Zm8.1-6v7.36h-1.39l-3.67-4.47v4.47h-1.68v-7.36h1.41l3.65,4.47v-4.47Zm3.27,1.39h-2.35v-1.39h6.41v1.39h-2.35v6h-1.71Zm9.45,4.39h-3.41l-.65,1.58h-1.75l3.28-7.36h1.68l3.29,7.36h-1.78Zm-.53-1.29L380.48,241l-1.17,2.82Zm4.9-3.1h-2.36v-1.39h6.41v1.39h-2.35v6h-1.7Zm5-1.39h1.7v7.36h-1.7Zm4.94,7A3.7,3.7,0,0,1,395,245a3.92,3.92,0,0,1,0-3.9,3.7,3.7,0,0,1,1.44-1.36,4.51,4.51,0,0,1,4.13,0,3.75,3.75,0,0,1,0,6.62,4.6,4.6,0,0,1-4.13,0Zm3.25-1.26a2.18,2.18,0,0,0,.82-.83,2.48,2.48,0,0,0,.3-1.22,2.45,2.45,0,0,0-.3-1.22,2.14,2.14,0,0,0-.82-.84,2.35,2.35,0,0,0-1.18-.3,2.33,2.33,0,0,0-1.18.3,2.14,2.14,0,0,0-.82.84,2.45,2.45,0,0,0-.3,1.22,2.48,2.48,0,0,0,.3,1.22,2.18,2.18,0,0,0,.82.83,2.33,2.33,0,0,0,1.18.3A2.35,2.35,0,0,0,399.71,245.06Zm10.87-5.73v7.36h-1.39l-3.67-4.47v4.47h-1.68v-7.36h1.41l3.65,4.47v-4.47Z" style="fill:#fff"></path><rect x="417.41" y="223.47" width="9.16" height="41.74" style="opacity:0.30000000000000004"></rect></g><g id="freepik--text-2--inject-15"><path d="M317.93,215.87h-118v-41.3h118Zm-91.13,3.44h33.95a.75.75,0,0,0,0-1.5H226.8a.75.75,0,0,0,0,1.5Z" style="fill:#92E3A9"></path><path d="M234.34,191.32h3.34a4.76,4.76,0,0,1,2.12.45,3.51,3.51,0,0,1,1.43,1.29,3.93,3.93,0,0,1,0,3.87,3.51,3.51,0,0,1-1.43,1.29,4.76,4.76,0,0,1-2.12.45h-3.34Zm3.26,6a2.49,2.49,0,0,0,1.76-.62,2.46,2.46,0,0,0,0-3.33,2.49,2.49,0,0,0-1.76-.62H236v4.57Zm11.12,0v1.36H243v-7.35h5.56v1.36h-3.87v1.6h3.42v1.32h-3.42v1.71Zm2.08,1.25a3.89,3.89,0,0,1-1.31-.61l.58-1.28a4,4,0,0,0,1.13.55,4.21,4.21,0,0,0,1.3.21,2.12,2.12,0,0,0,1.07-.21.67.67,0,0,0,.35-.57.54.54,0,0,0-.21-.44,1.43,1.43,0,0,0-.52-.28,8.5,8.5,0,0,0-.87-.23,11.42,11.42,0,0,1-1.37-.4,2.19,2.19,0,0,1-.92-.64,1.73,1.73,0,0,1-.39-1.18,2.06,2.06,0,0,1,.35-1.16,2.29,2.29,0,0,1,1-.82,4.18,4.18,0,0,1,1.71-.31,5.79,5.79,0,0,1,1.38.17,4.05,4.05,0,0,1,1.18.48l-.53,1.3a4.06,4.06,0,0,0-2-.58,1.82,1.82,0,0,0-1,.23.71.71,0,0,0-.35.61.59.59,0,0,0,.4.56,6.35,6.35,0,0,0,1.2.36c.56.14,1,.27,1.38.4a2.33,2.33,0,0,1,.92.63,1.73,1.73,0,0,1,.38,1.17,2,2,0,0,1-.35,1.15,2.38,2.38,0,0,1-1.06.83,4.36,4.36,0,0,1-1.71.3A6,6,0,0,1,250.8,198.56Zm6-7.24h1.7v7.35h-1.7Zm8.42,3.56h1.55v3a4.28,4.28,0,0,1-1.38.7,5.48,5.48,0,0,1-1.59.24,4.24,4.24,0,0,1-2.06-.49,3.67,3.67,0,0,1-1.44-1.35,3.83,3.83,0,0,1-.52-2,3.77,3.77,0,0,1,.52-2,3.66,3.66,0,0,1,1.45-1.36,4.34,4.34,0,0,1,2.08-.49,4.52,4.52,0,0,1,1.76.33,3.47,3.47,0,0,1,1.32.94l-1.09,1a2.66,2.66,0,0,0-3.16-.53,2.12,2.12,0,0,0-.85.83,2.63,2.63,0,0,0,0,2.44,2.21,2.21,0,0,0,.85.84,2.49,2.49,0,0,0,1.23.3,2.81,2.81,0,0,0,1.33-.32Zm9.88-3.56v7.35h-1.4L270,194.21v4.46h-1.68v-7.35h1.41l3.66,4.46v-4.46Z" style="fill:#fff"></path><rect x="308.77" y="174.57" width="9.16" height="41.31" style="opacity:0.30000000000000004"></rect></g><g id="freepik--text-1--inject-15"><polygon points="195.25 170.81 77.23 170.39 77.23 129.51 195.25 129.51 195.25 170.81" style="fill:#92E3A9"></polygon><path d="M94,153.75l-1.42-2.05H91v2.05H89.3v-7.36h3.19a4,4,0,0,1,1.69.33,2.47,2.47,0,0,1,1.11.92,2.54,2.54,0,0,1,.39,1.42,2.48,2.48,0,0,1-.39,1.41,2.53,2.53,0,0,1-1.12.91l1.65,2.37Zm-.43-5.64a1.81,1.81,0,0,0-1.17-.33H91v2.56h1.39a1.81,1.81,0,0,0,1.17-.33,1.2,1.2,0,0,0,.4-.95A1.19,1.19,0,0,0,93.56,148.11Zm9.16,4.27v1.37H97v-7.36h5.56v1.37H98.72v1.59h3.41v1.33H98.72v1.7Zm9.29,2.16a2.26,2.26,0,0,1-.86.67,2.77,2.77,0,0,1-1.12.23,3.14,3.14,0,0,1-1.48-.35,6.34,6.34,0,0,1-1.52-1.25,4,4,0,0,1-1.78-.64,3.54,3.54,0,0,1-1.22-1.33,3.74,3.74,0,0,1-.43-1.8,3.7,3.7,0,0,1,.52-1.95,3.57,3.57,0,0,1,1.44-1.36,4.49,4.49,0,0,1,4.12,0,3.8,3.8,0,0,1,1.25,5.56,3.74,3.74,0,0,1-1.91,1.34,1.62,1.62,0,0,0,.51.4,1.18,1.18,0,0,0,.53.12,1.59,1.59,0,0,0,1.2-.55Zm-6.39-3.25a2.11,2.11,0,0,0,.82.83,2.35,2.35,0,0,0,1.18.3,2.33,2.33,0,0,0,1.18-.3,2.11,2.11,0,0,0,.82-.83,2.63,2.63,0,0,0,0-2.44,2.14,2.14,0,0,0-.82-.84,2.32,2.32,0,0,0-1.18-.29,2.35,2.35,0,0,0-1.18.29,2.14,2.14,0,0,0-.82.84,2.63,2.63,0,0,0,0,2.44Zm8.12,1.71a3.37,3.37,0,0,1-.87-2.49v-4.12h1.7v4.06c0,1.32.55,2,1.64,2a1.57,1.57,0,0,0,1.22-.47,2.24,2.24,0,0,0,.42-1.5v-4.06h1.68v4.12a3.48,3.48,0,0,1-5.79,2.49Zm7.47-6.61h1.7v7.36h-1.7Zm8.14,7.36-1.42-2.05h-1.57v2.05h-1.7v-7.36h3.18a4,4,0,0,1,1.7.33,2.47,2.47,0,0,1,1.11.92,2.54,2.54,0,0,1,.39,1.42,2.48,2.48,0,0,1-.39,1.41,2.53,2.53,0,0,1-1.12.91l1.65,2.37Zm-.43-5.64a1.81,1.81,0,0,0-1.17-.33h-1.39v2.56h1.39a1.81,1.81,0,0,0,1.17-.33,1.2,1.2,0,0,0,.4-.95A1.19,1.19,0,0,0,128.92,148.11Zm9.16,4.27v1.37h-5.7v-7.36h5.56v1.37h-3.86v1.59h3.41v1.33h-3.41v1.7Zm8,1.37v-4.42L144,153h-.77L141,149.43v4.32h-1.6v-7.36h1.41L143.6,151l2.71-4.57h1.4l0,7.36Zm9-1.37v1.37h-5.69v-7.36H155v1.37h-3.87v1.59h3.41v1.33h-3.41v1.7Zm8.11-6v7.36h-1.4l-3.67-4.47v4.47h-1.68v-7.36h1.41l3.65,4.47v-4.47Zm3.26,1.39h-2.35v-1.39h6.41v1.39h-2.35v6h-1.71Zm5.65,5.86a3.75,3.75,0,0,1-1.3-.62l.57-1.28a4,4,0,0,0,1.13.56,4.21,4.21,0,0,0,1.3.21,2,2,0,0,0,1.07-.22.63.63,0,0,0,.35-.57.57.57,0,0,0-.2-.44,1.76,1.76,0,0,0-.53-.27q-.32-.1-.87-.24a9.82,9.82,0,0,1-1.37-.4,2.11,2.11,0,0,1-.92-.64,1.69,1.69,0,0,1-.39-1.17,2.09,2.09,0,0,1,.35-1.17,2.33,2.33,0,0,1,1.05-.82,4.27,4.27,0,0,1,1.7-.31,5.79,5.79,0,0,1,1.38.17,4.06,4.06,0,0,1,1.18.49l-.53,1.29a4.06,4.06,0,0,0-2-.58,1.92,1.92,0,0,0-1.05.23.71.71,0,0,0-.34.61.59.59,0,0,0,.39.56,5.59,5.59,0,0,0,1.2.37,10.45,10.45,0,0,1,1.38.4,2.23,2.23,0,0,1,.92.63,1.64,1.64,0,0,1,.38,1.16,2,2,0,0,1-.35,1.15,2.31,2.31,0,0,1-1.06.83,4.36,4.36,0,0,1-1.71.3A6,6,0,0,1,172.19,153.64Z" style="fill:#fff"></path><rect x="186.09" y="129.51" width="9.16" height="41.31" style="opacity:0.30000000000000004"></rect></g><g id="freepik--Arrows--inject-15"><path d="M184,188.54l5,4.85-5,4.85-5,4.85v-5.42c-.82,0-1.77.06-2.83.06a59.13,59.13,0,0,1-6.11-.3c-6.15-.62-12.6-1.67-18.14-6.85a19.72,19.72,0,0,1-5.72-9.72l8.2-2.14a11.1,11.1,0,0,0,3.32,5.67c3.28,3.08,7.17,4,13.2,4.61a55.14,55.14,0,0,0,8.08.19v-5.5Zm101.25,43.87v5.5a55.27,55.27,0,0,1-8.09-.19c-6-.61-9.91-1.53-13.2-4.6a11.31,11.31,0,0,1-3.32-5.68l-8.2,2.14a19.72,19.72,0,0,0,5.72,9.72c5.54,5.19,12,6.23,18.14,6.86,2.2.22,4.3.29,6.12.29,1.06,0,2,0,2.83-.06v5.42l5-4.85,5-4.85-5-4.85Zm106.23,48.73v5.49a55.14,55.14,0,0,1-8.08-.19c-6-.61-9.92-1.53-13.2-4.6a11.17,11.17,0,0,1-3.32-5.68l-8.2,2.14A19.79,19.79,0,0,0,364.4,288c5.54,5.18,12,6.22,18.14,6.85,2.2.22,4.3.3,6.11.3,1.06,0,2,0,2.83-.07v5.42l5-4.85,5-4.85-5-4.84ZM534.4,331.2l-5-4.85v5.49a55,55,0,0,1-8.09-.18c-6-.62-9.91-1.53-13.2-4.61a11.24,11.24,0,0,1-3.32-5.67l-8.2,2.14a19.66,19.66,0,0,0,5.73,9.72c5.53,5.18,12,6.23,18.13,6.85a59.18,59.18,0,0,0,6.12.3c1.06,0,2,0,2.83-.06v5.42l5-4.85,5-4.85Z" style="fill:#92E3A9"></path></g><g id="freepik--character-2--inject-15"><path d="M592.29,269.4s-9.6,25.72-9,25.92-21.8,6.95-21.8,6.95l3.58,7.31s28.71-6.09,30.63-8.45,8.71-29.85,8.71-29.85Z" style="fill:#b97964"></path><path d="M606.42,242.25c5.07,3.69,7.79,15.18-7.87,37.53l-14.32-8.63s6-11.19,10.6-20.83C602.38,239.84,606.42,242.25,606.42,242.25Z" style="fill:#92E3A9"></path><path d="M606.42,242.25c5.07,3.69,7.79,15.18-7.87,37.53l-14.32-8.63s6-11.19,10.6-20.83C602.38,239.84,606.42,242.25,606.42,242.25Z" style="fill:#fff;opacity:0.4"></path><path d="M606.3,241.85a151.41,151.41,0,0,1,35.29,2.74l.3,61.65s.42,8.34,1.49,16.71c-17.18,6.64-39.27,4.67-50.21-2.15.11.27.82-6.61,1.89-16.68,1.88-17.76,4.9-45.43,7.83-61.4C603,242.33,605.9,241.88,606.3,241.85Z" style="fill:#92E3A9"></path><path d="M606.3,241.85a151.41,151.41,0,0,1,35.29,2.74l.3,61.65s.42,8.34,1.49,16.71c-17.18,6.64-39.27,4.67-50.21-2.15.11.27.82-6.61,1.89-16.68,1.88-17.76,4.9-45.43,7.83-61.4C603,242.33,605.9,241.88,606.3,241.85Z" style="fill:#fff;opacity:0.4"></path><polygon points="598.17 276.21 600.75 256.2 594.76 277.49 597.6 279.21 598.17 276.21" style="isolation:isolate;opacity:0.2"></polygon><polygon points="640.16 279.63 639.26 279.75 636 263.75 637.51 281.7 640.38 282.17 640.16 279.63" style="isolation:isolate;opacity:0.2"></polygon><path d="M650.22,266.49c1,1.53,7.6,37.45,7.6,37.45l-12,2.55-5.9-34.06Z" style="fill:#b97964"></path><path d="M641.59,244.59s6.85,1.27,8.4,9.38c1.44,7.46,5.46,24,5.46,24l-16.19,2.1L636,260.71Z" style="fill:#92E3A9"></path><path d="M641.59,244.59s6.85,1.27,8.4,9.38c1.44,7.46,5.46,24,5.46,24l-16.19,2.1L636,260.71Z" style="fill:#fff;opacity:0.4"></path><polygon points="585.55 442.56 579.16 459.83 573.36 457.95 575.36 439.73 585.55 442.56" style="fill:#b97964"></polygon><path d="M578.35,455.54l-3,.44-.2-1.48c-.18-1.28-.88-2.1-2.16-1.92a3,3,0,0,0-2,2.05,3.67,3.67,0,0,1-2.38,3.14s-6.18,4.06-8.14,4.17a3.92,3.92,0,0,0-3.34,2,6.9,6.9,0,0,0-.67,1.44c-.08.23-.16.47-.23.73s-.13.54-.19.83l4.65,0,9.31.07h0s1.22-.23,2.09-.37l.7-.1a1.42,1.42,0,0,1,.53.05,5.41,5.41,0,0,1,1.15.45l5.26,0s.1-.87.25-2.14h0c.06-.57.14-1.22.22-1.91.34-3,.87-6.68,1-7.52C581.37,454.05,578.35,455.54,578.35,455.54Z" style="fill:#263238"></path><path d="M565.59,459.27a.19.19,0,0,1,.24,0,2.44,2.44,0,0,1,.82,1c.11.22-.21.42-.31.2a2.18,2.18,0,0,0-.73-.85.2.2,0,0,1,0-.3Zm1.11-.64a.18.18,0,0,0,0,.29,2.11,2.11,0,0,1,.72.86c.11.21.42,0,.32-.21a2.43,2.43,0,0,0-.83-1,.2.2,0,0,0-.24,0Zm1.15-.6a.18.18,0,0,0,0,.29,2.08,2.08,0,0,1,.72.85c.11.22.42,0,.32-.2a2.46,2.46,0,0,0-.83-1,.2.2,0,0,0-.24,0Z" style="fill:#92E3A9"></path><polygon points="627.31 439.48 629.87 458.27 636 458.58 637.98 440.47 627.31 439.48" style="fill:#b97964"></polygon><path d="M641.21,467h-13.7a3.46,3.46,0,0,1,0-2.11c.06-.24.12-.5.21-.78a.09.09,0,0,0,0-.05c.13-.42.28-.94.44-1.5.62-2.3,1.36-5.29,1.36-5.29s2.28-4.88,4.95-3.67c2.34,1.07,1.78,4.13,1.78,4.13a6,6,0,0,0,2,3.38,9.43,9.43,0,0,1,2.72,2.95,4.94,4.94,0,0,1,.23.74s0,.06,0,.09A5.63,5.63,0,0,1,641.21,467Z" style="fill:#263238"></path><path d="M635.75,458.5a1.84,1.84,0,0,0-2.47.15c-.19.18-.48-.1-.29-.28a2.26,2.26,0,0,1,3-.16c.2.16-.09.45-.29.29Zm.39,1.28c.2.16.49-.13.28-.29a2.25,2.25,0,0,0-3,.16c-.19.18.1.46.28.28a1.86,1.86,0,0,1,2.48-.15Zm.38,1.18c.21.15.5-.13.29-.29a2.26,2.26,0,0,0-3,.15c-.18.18.1.47.29.29a1.82,1.82,0,0,1,2.47-.15Z" style="fill:#92E3A9"></path><path d="M641.46,320.28l-29.57.25-18-.54s-12.64,54.49-13.71,64.75S569.89,449,569.89,449l14,3.08s15.92-57.78,17.06-63.33c1-4.84,12.06-35.87,14.89-43.75.28,1.61.57,3.23.87,4.84.71,7.28,3,30.47,4,39.1,0,0,2.17,49.29,4.68,63.61l13.17,0c1.74-20.32,2.86-91.7,2.86-91.7h0C642.38,345.4,641.46,320.28,641.46,320.28Z" style="fill:#263238"></path><path d="M601.28,328.14a.24.24,0,0,1,.46.13,17.9,17.9,0,0,1-12,11.85.24.24,0,0,1-.13-.46,17.44,17.44,0,0,0,11.67-11.52Zm14.54,0-.45,6.54a.22.22,0,0,0-.25,0c-.77.68-1.73,0-2.11-.7a5.85,5.85,0,0,1-.46-2.23,13.59,13.59,0,0,1,.4-4.26.24.24,0,0,0-.47-.12,11.93,11.93,0,0,0-.1,6.33c.39,1.22,1.78,2.33,3,1.42-.16,2.47-.32,4.95-.49,7.41,0,.31.46.31.48,0q.48-7.21,1-14.43C616.31,327.83,615.83,327.83,615.82,328.14Zm14.62.82a12.14,12.14,0,0,0,11.19,12.21c.3,0,.3-.45,0-.47A11.67,11.67,0,0,1,630.91,329a.24.24,0,0,0-.47,0Zm-1.21,64a8.89,8.89,0,0,0,6.08,0c.28-.11.16-.56-.13-.46a8.41,8.41,0,0,1-5.83,0c-.28-.1-.41.36-.12.46Z"></path><path d="M592.85,315.78a159.07,159.07,0,0,0,48.92-1.49l.63,7.26c-17.34,3-35.41,3.22-50.11.21Z" style="fill:#92E3A9"></path><path d="M592.85,315.78a159.07,159.07,0,0,0,48.92-1.49l.63,7.26c-17.34,3-35.41,3.22-50.11.21Z" style="opacity:0.30000000000000004"></path><path d="M624.73,323.78c.11.7-3.53,27.54,4.32,28.7s21.86-2.73,22-6.7-2.09-26.4-5.75-26.4S624.73,323.78,624.73,323.78Z" style="fill:#92E3A9"></path><path d="M624.73,323.78c.11.7-3.53,27.54,4.32,28.7s21.86-2.73,22-6.7-2.09-26.4-5.75-26.4S624.73,323.78,624.73,323.78Z" style="opacity:0.30000000000000004"></path><path d="M618.1,320.25a12,12,0,0,0-1.3-.27c-.08-1.64-.27-3.21-.63-3.51-.19-.17-.56-.47-6.95-.15a1.33,1.33,0,0,0-1.19,1.22c-.88,6.22,0,6.67.38,6.86a14.61,14.61,0,0,0,4.52.49,11.8,11.8,0,0,0,3.31-.32.8.8,0,0,0,.48-.44,17.94,17.94,0,0,0,.11-3.12,8.59,8.59,0,0,1,1,.2l.13,0a.51.51,0,0,0,.49-.37A.5.5,0,0,0,618.1,320.25Zm-2.29,3.42c-.95.32-6,.32-6.92-.14-.24-.25-.41-2,.13-5.85,0-.22.15-.36.25-.36h0c2.13-.11,3.71-.15,4.76-.15a12.25,12.25,0,0,1,1.46.05,14.09,14.09,0,0,1,.3,2.67,11.68,11.68,0,0,0-3.66.32.5.5,0,0,0-.36.61.51.51,0,0,0,.61.36,10.93,10.93,0,0,1,3.45-.29A23.42,23.42,0,0,1,615.81,323.67Z" style="fill:#263238"></path><path d="M625.57,330.2c.17,0,21.57-2.17,21.57-2.17s-.83-6.59-2.1-7.08-17.17,1.27-18.23,2.34S625.57,330.2,625.57,330.2Z" style="opacity:0.30000000000000004"></path><path d="M633.82,306.48l-1-.1,0,.27-.14,1.25a.4.4,0,0,0,0,.15l.25.52a.76.76,0,0,1,.06.36l-1.33,12.31.55.06.51.05,1.32-12.28a.65.65,0,0,1,.16-.37l.37-.44a.33.33,0,0,0,.07-.16l.13-1.23,0-.28Z" style="fill:#e0e0e0"></path><path d="M634.29,321l-4-.44a.61.61,0,0,0-.72.44l0,.41c0,.28.25.54.62.58h.09a25.41,25.41,0,0,0-.82,4.92c-.13,1.19-.35,2.11-.43,2.93l4.62-.46.22-2a26,26,0,0,0,.25-5l-1.84-.2,1.93.21a.61.61,0,0,0,.72-.44l0-.4C634.94,321.27,634.66,321,634.29,321Z" style="fill:#92E3A9"></path><polygon points="630.21 321.97 634.05 322.38 634.08 322.79 630.08 322.39 630.21 321.97" style="opacity:0.30000000000000004"></polygon><path d="M642.82,322.19a3.93,3.93,0,0,1-1.07-1.54l-.11-.67.52-.77a.72.72,0,0,0,.12-.55l-.55-3.21-3-6.21a.11.11,0,0,0-.12-.07l-.37.07-.23,0H638l-.11,0-.15,0-.37.06a.11.11,0,0,0-.09.1l-.69,6.85.56,3.2a.71.71,0,0,0,.3.48l.75.56h0l.12.67a3.77,3.77,0,0,1-.49,1.8,11.8,11.8,0,0,0-1.08,5.95l1.56-.13a10.17,10.17,0,0,1,1-5.21,4.78,4.78,0,0,0,.58-2.68l-.09-.56a.11.11,0,0,1,.1-.13h.06l.09,0a.11.11,0,0,1,.13.09l.1.56a4.85,4.85,0,0,0,1.45,2.33,10.15,10.15,0,0,1,2.67,4.58l1.51-.4A11.73,11.73,0,0,0,642.82,322.19Zm-3.26-3.85a1.31,1.31,0,0,1-1.31-.57,1.37,1.37,0,0,1-.18-.49.78.78,0,0,1,0-.22V317a1,1,0,0,1,0-.17,1,1,0,0,1,0-.14h0a1.66,1.66,0,0,1,.26-.47l0,0a.74.74,0,0,1,.13-.12l0,0a.67.67,0,0,1,.14-.09l0,0,.13-.06a.79.79,0,0,1,.22-.06h0a1.3,1.3,0,0,1,1.51,1,2.46,2.46,0,0,1,0,.26A1.3,1.3,0,0,1,639.56,318.34Z" style="fill:#ebebeb"></path><path d="M646.43,328l-2.21.22a11.67,11.67,0,0,0-2.68-4.91,4.9,4.9,0,0,1-1.48-2.4l2-.35a3.82,3.82,0,0,0,1,1.47A12.43,12.43,0,0,1,646.43,328ZM638,321.3a3.89,3.89,0,0,1-.47,1.73,11.68,11.68,0,0,0-1.23,6l2.14-.2a9.92,9.92,0,0,1,1-5.14A5,5,0,0,0,640,321Z" style="fill:#92E3A9"></path><rect x="543.2" y="302.94" width="121.53" height="42.99" style="fill:#92E3A9"></rect><rect x="655.37" y="302.94" width="9.37" height="42.99" style="opacity:0.30000000000000004"></rect><path d="M562.43,329.11V324.7l-2.17,3.63h-.77l-2.15-3.54v4.32h-1.6v-7.36h1.41l2.75,4.58,2.72-4.58H564l0,7.36Zm8.19-1.57H567.2l-.65,1.57H564.8l3.28-7.36h1.68l3.29,7.36h-1.78Zm-.54-1.3-1.17-2.81-1.16,2.81Zm3.74-4.49h1.7v7.36h-1.7Zm10.2,0v7.36h-1.4L579,324.65v4.46h-1.68v-7.36h1.41l3.65,4.47v-4.47Zm3.27,1.39h-2.36v-1.39h6.41v1.39H589v6h-1.7ZM598,327.75v1.36h-5.7v-7.36h5.56v1.37H594v1.6h3.42V326H594v1.71Zm8.1-6v7.36h-1.4L601,324.65v4.46h-1.68v-7.36h1.41l3.66,4.47v-4.47Zm6.59,5.79h-3.42l-.65,1.57h-1.74l3.28-7.36h1.68l3.29,7.36H613.3Zm-.54-1.3L611,323.43l-1.17,2.81Zm10.49-4.49v7.36h-1.39l-3.67-4.46v4.46h-1.68v-7.36h1.4l3.66,4.47v-4.47Zm3.24,7a3.6,3.6,0,0,1-1.43-1.36,3.68,3.68,0,0,1-.52-2,3.73,3.73,0,0,1,.52-2,3.58,3.58,0,0,1,1.43-1.35,4.16,4.16,0,0,1,2-.49,4.37,4.37,0,0,1,1.73.33,3.58,3.58,0,0,1,1.3,1l-1.1,1a2.35,2.35,0,0,0-1.85-.86,2.41,2.41,0,0,0-1.21.3,2.16,2.16,0,0,0-.84.83,2.48,2.48,0,0,0-.3,1.22,2.45,2.45,0,0,0,.3,1.22,2.12,2.12,0,0,0,.84.84,2.41,2.41,0,0,0,1.21.3,2.33,2.33,0,0,0,1.85-.87l1.1,1a3.36,3.36,0,0,1-1.31,1,4.5,4.5,0,0,1-3.76-.15Zm11.91-1v1.36h-5.7v-7.36h5.56v1.37h-3.86v1.6h3.41V326h-3.41v1.71Z" style="fill:#fff"></path><path d="M664.75,317.57s-8.76,1.78-9.65,3.61,2,1.73,2,1.73-3.18.3-3.24,1.67c-.06,1.64,3,1.52,3,1.52s-2.58.36-2.55,1.58,3.47,1.37,3.47,1.37-1.77.6-1.27,1.43,7.78,1.21,10-.12,2.31-10.7,1.92-12.75-1.41-3.37-3.63-4.78v4.74Z" style="fill:#b97964"></path><path d="M657.82,329.05a.14.14,0,0,1,.13-.16l4-.14a.15.15,0,0,1,.14.15.16.16,0,0,1-.13.16l-4,.14A.15.15,0,0,1,657.82,329.05Zm-.7-6h0l5.52-.8a.16.16,0,0,0,.12-.17.14.14,0,0,0-.16-.13l-5.51.79a.15.15,0,0,0-.12.17A.15.15,0,0,0,657.12,323.06Zm-.25,3a.16.16,0,0,1,.13-.16l5.36-.34a.14.14,0,0,1,.14.14.13.13,0,0,1-.12.16l-5.36.35h0A.15.15,0,0,1,656.87,326.1Z" style="opacity:0.2"></path><path d="M568.17,303s-1.74,8.78-3.56,9.67-1.74-2-1.74-2-.29,3.18-1.65,3.24c-1.65.07-1.54-3-1.54-3s-.35,2.58-1.56,2.55-1.4-3.46-1.4-3.46-.58,1.78-1.42,1.28-1.24-7.78.08-10,10.68-2.36,12.73-2,3.38,1.4,4.81,3.61Z" style="fill:#b97964"></path><path d="M562.8,310.63h0l.77-5.52a.16.16,0,0,1,.18-.12.14.14,0,0,1,.13.15l-.77,5.52a.15.15,0,0,1-.17.12A.15.15,0,0,1,562.8,310.63Zm-3,.26a.15.15,0,0,0,.16-.13l.32-5.36a.14.14,0,0,0-.15-.14.15.15,0,0,0-.16.12l-.32,5.37h0A.15.15,0,0,0,559.76,310.89Zm-3-.93a.16.16,0,0,0,.16-.13l.12-4a.15.15,0,0,0-.15-.14.15.15,0,0,0-.16.13l-.12,4A.15.15,0,0,0,556.81,310Z" style="opacity:0.2"></path><path d="M627.81,242.49s-.93-5.14,1.74-14.21l-.48-.23c.37-1.27.76-2.44,1.13-3.46v0l-12.45,7.63c.28,2.91-.78,8.52-1.41,10.89,0,0-1.58,4.28,4.12,4.49C624.64,247.71,627.81,242.49,627.81,242.49Z" style="fill:#b97964"></path><path d="M617.52,236.46l7.16-1.58c-.66,2.22-2.63,4.85-7.61,5.05A22.28,22.28,0,0,0,617.52,236.46Z" style="opacity:0.2"></path><path d="M609.24,210.88c-1.47,2.87-2,9.19,2.57,7.89S611.77,206,609.24,210.88Z" style="fill:#263238"></path><path d="M630.32,218.71c-.86,7.88-1.19,12.34-5.38,16.16-6.31,5.75-15.67,1.76-17.18-6.24-1.36-7.19.29-18.86,8.18-21.55A10.92,10.92,0,0,1,630.32,218.71Z" style="fill:#b97964"></path><path d="M632.06,209.48c-.88-4.41-12.06-5.19-15.21-3.12-.47.31,5.83,3.87,5.45,3.71l3,1.2c.47-.08,1.37.51,1.77,2,0,0-1.56,8.3,1.7,12,3.51-1.41,4.51-2.77,5.52-5.58C635.78,215.45,633.72,212,632.06,209.48Z" style="fill:#263238"></path><path d="M633.12,225.45a7.43,7.43,0,0,1-3.92,4.17c-2.41,1.06-4-1-3.67-3.5.31-2.23,1.94-5.46,4.52-5.47A3.41,3.41,0,0,1,633.12,225.45Z" style="fill:#b97964"></path><path d="M618.91,220.45c0,.81-.5,1.44-1,1.4s-.93-.71-.89-1.51.5-1.44,1-1.41S619,219.64,618.91,220.45Zm-8.82-1.75c-.53,0-1,.6-1,1.41s.36,1.49.89,1.52,1-.6,1-1.41S610.62,218.73,610.09,218.7Z" style="fill:#263238"></path><path d="M613.58,219.9s-2.76,3.89-3.66,5.49a3.82,3.82,0,0,0,3,.69Z" style="fill:#a24e3f"></path><path d="M627.71,225.62h0a.25.25,0,0,1-.21-.28,4.25,4.25,0,0,1,.88-2,2.75,2.75,0,0,1,1.54-1,1.68,1.68,0,0,1,1.76.7.25.25,0,0,1-.43.26,1.18,1.18,0,0,0-1.23-.47,2.22,2.22,0,0,0-1.25.84,3.55,3.55,0,0,0-.78,1.73A.25.25,0,0,1,627.71,225.62Z" style="opacity:0.2"></path><path d="M620.68,226.22l-6.86,2.38a9.58,9.58,0,0,0,1.42,2.12,3,3,0,0,0,2.19.9,3.08,3.08,0,0,0,2.87-1.8A7,7,0,0,0,620.68,226.22Z"></path><path d="M614.38,228.41s.47.85.9,1,5.48-1.9,5.48-1.9l-.08-1.27Z" style="fill:#fff"></path><path d="M616.56,231.5a3,3,0,0,1,1.75-1.79,3.13,3.13,0,0,1,2.15-.29,3.19,3.19,0,0,1-1.74,2A3,3,0,0,1,616.56,231.5Z" style="fill:#de5753"></path><path d="M608.35,211.89s5.6-11.62,16.29-8.45,11.31,9.55,9.84,15.9c0,0-10-5-14.35-6.61S608.35,211.89,608.35,211.89Z" style="fill:#92E3A9"></path><path d="M608.35,211.89s5.6-11.62,16.29-8.45,11.31,9.55,9.84,15.9c0,0-10-5-14.35-6.61S608.35,211.89,608.35,211.89Z" style="isolation:isolate;opacity:0.2"></path><path d="M614.39,210.3c-6-.44-8.18-.72-13.72.49a5.69,5.69,0,0,0-2.5,1,2.2,2.2,0,0,0-.78,2.42,2.31,2.31,0,0,0,1.25,1.26,46.25,46.25,0,0,0,9.43,1.83l.78-2.75a3.45,3.45,0,0,1,3.08-2.51,21.3,21.3,0,0,1,6.56.5A59.3,59.3,0,0,1,631.83,218a30.06,30.06,0,0,0-10.69-6.22A21.78,21.78,0,0,0,614.39,210.3Z" style="fill:#92E3A9"></path><path d="M628.08,203.55a1.74,1.74,0,0,0-1.43-.52,2.25,2.25,0,0,0-1.38.68l3.07,1.3A1.38,1.38,0,0,0,628.08,203.55Z" style="fill:#92E3A9"></path><path d="M621.07,216.73a.36.36,0,0,1-.38-.07,3.08,3.08,0,0,0-2.64-.74.39.39,0,0,1-.48-.26.37.37,0,0,1,.26-.46,3.81,3.81,0,0,1,3.36.89.4.4,0,0,1,0,.54A.39.39,0,0,1,621.07,216.73ZM608,216.56a2.92,2.92,0,0,1,2.62-.76.37.37,0,0,0,.46-.26.39.39,0,0,0-.27-.47,3.73,3.73,0,0,0-3.31.92.38.38,0,0,0,0,.54.34.34,0,0,0,.18.11A.38.38,0,0,0,608,216.56Z" style="fill:#263238"></path></g><g id="freepik--character-1--inject-15"><path d="M80.18,361.91h0a13.67,13.67,0,0,1-.29-19.33l2.58-3.17,20,18.25-2.92,3.42A13.68,13.68,0,0,1,80.18,361.91Z" style="fill:#d4827d"></path><rect x="127.49" y="219.45" width="31.1" height="152.35" transform="translate(241.95 -17.54) rotate(43.35)" style="fill:#263238"></rect><polygon points="184.03 229.56 210.12 224.56 206.64 250.9 184.03 229.56" style="fill:#eec1bb"></polygon><path d="M202.29,226.06l6.79,6.41,1.2-7.45a.52.52,0,0,0-.62-.59Z" style="fill:#92E3A9"></path><path d="M190.78,236.52,90.43,342.63l9.23,8.72,99.58-107.72S183.16,250.9,190.78,236.52Z" style="fill:#fff;opacity:0.2"></path><rect x="73.22" y="349.06" width="34.42" height="4.26" rx="2.11" transform="translate(265.74 33.73) rotate(43.35)" style="fill:#263238"></rect><rect x="73.22" y="349.06" width="34.42" height="4.26" rx="2.11" transform="translate(265.74 33.73) rotate(43.35)" style="fill:#fff;opacity:0.30000000000000004"></rect><path d="M103,360.16l-22-20.72a2.12,2.12,0,0,1-.08-3l0,0a2.12,2.12,0,0,1,3-.09L106,357.07a2.1,2.1,0,0,1,.09,3l0,0A2.1,2.1,0,0,1,103,360.16Z" style="fill:#263238"></path><path d="M103,360.16l-22-20.72a2.12,2.12,0,0,1-.08-3l0,0a2.12,2.12,0,0,1,3-.09L106,357.07a2.1,2.1,0,0,1,.09,3l0,0A2.1,2.1,0,0,1,103,360.16Z" style="fill:#fff;opacity:0.2"></path><path d="M105.8,357.23l-22-20.72a2.12,2.12,0,0,1-.09-3l0,0a2.1,2.1,0,0,1,3-.09l22,20.73a2.1,2.1,0,0,1,.08,3l0,0A2.11,2.11,0,0,1,105.8,357.23Z" style="fill:#263238"></path><path d="M105.8,357.23l-22-20.72a2.12,2.12,0,0,1-.09-3l0,0a2.1,2.1,0,0,1,3-.09l22,20.73a2.1,2.1,0,0,1,.08,3l0,0A2.11,2.11,0,0,1,105.8,357.23Z" style="fill:#fff;opacity:0.30000000000000004"></path><path d="M184,229.56a19.11,19.11,0,0,0-3.14,5.75,2.17,2.17,0,0,0-.09,1.62c.38.78,1.44.9,2.31.88a24,24,0,0,0,7.67-1.29c-.95,1.78-2,3.46-3.06,5.54a2.92,2.92,0,0,0-.42,2.22c.36,1.06,1.7,1.38,2.82,1.42,3.77.16,4.7-.52,8.84-1.74,1.08.47-.08,2.4-.62,4.47-.64,2.47.09,4.71,2.23,4.6,1.6-.09,5-.9,6.07-2.13" style="fill:#eec1bb"></path><path d="M126.11,274c-.4,0-3.19,17.71-3,18.23.69,1.92,21.15-2.36,21.15-2.36l1.29,5.47A76.81,76.81,0,0,1,127,301.27c-9.92,1.62-13.63-2.78-13.67-9.5,0-6.17,2.51-21.16,2.51-21.16Z" style="fill:#895555"></path><path d="M173.81,370.4c-2.89-28-6.14-44.18-7.71-50.93h0c-.59-2.54-.94-3.75-.94-3.75l-.2.05c-1.79-5.7-2.61-7.45-4.55-10.64L129,309.53c-4.65,6.08-5.18,15.55-4.85,25.62.85,15.75,4.52,39.11,4.88,44.42h.37c0,4.07-2.56,17.77-2.56,23.87,0,20.79,2.44,53.41,2.44,53.41l1.88,5.6,6.38-4.83s11-73,11.13-77.31c0-.48,0-1,.05-1.46l.44-7.56c.12-1.85.26-3.76.39-5.71l4.69,14.55c-2.74,11.9-5.85,49.17-3.9,79.1l8.32-1.18,12.18-62.29C172.1,388.88,174.57,377.76,173.81,370.4Z" style="fill:#895555"></path><path d="M138.59,456.56h-2.7a1.9,1.9,0,0,0-1.54.8c-1.55,2.12-2.72,1.32-4.41-.68-1.08-.12-1.37,1.11-1.46,1.44l-2,7.34a1.14,1.14,0,0,0,.79,1.42,1.26,1.26,0,0,0,.33.05H149c3.39,0,4.1-3.43,2.7-3.74-6.3-1.4-10.76-3.25-12.7-5.08C138.61,457.79,139,457.55,138.59,456.56Z" style="fill:#263238"></path><path d="M144.44,458.64a1.12,1.12,0,0,0,.46-.88.48.48,0,0,0-.22-.47c-.85-.6-4.22,1-4.6,1.16a.16.16,0,0,0-.09.09.14.14,0,0,0,.09.19,12.71,12.71,0,0,0,2.53.33A3,3,0,0,0,144.44,458.64Zm0-1.1a.19.19,0,0,1,.08.2.87.87,0,0,1-.33.65c-.77.57-2.62.32-3.61.14C142,457.91,144,457.22,144.47,457.54Zm-4.28,1.22c1-.42,3.14-2.08,3-3,0-.19-.15-.41-.61-.47-1.85-.21-2.64,3.11-2.64,3.25a.14.14,0,0,0,0,.16h.11Zm2.36-3.16c.34,0,.34.16.34.21.1.53-1.44,1.92-2.55,2.5.23-.78.91-2.72,2.08-2.72Zm-4.38,4.76a.35.35,0,0,1-.14,0A.26.26,0,0,1,138,460a3.51,3.51,0,0,1,2.46-1.59.27.27,0,0,1,.29.21.26.26,0,0,1-.22.29,3,3,0,0,0-2.11,1.36A.26.26,0,0,1,138.17,460.36Zm1.67,1.26a.31.31,0,0,1-.13,0,.26.26,0,0,1-.08-.35,3.53,3.53,0,0,1,2.47-1.59.26.26,0,0,1,.28.22.25.25,0,0,1-.21.28,3,3,0,0,0-2.11,1.36A.27.27,0,0,1,139.84,461.62Zm2.09,1.07a.28.28,0,0,1-.13,0,.25.25,0,0,1-.08-.35,3.51,3.51,0,0,1,2.47-1.59.26.26,0,0,1,.28.22.25.25,0,0,1-.22.28,3,3,0,0,0-2.11,1.36A.27.27,0,0,1,141.93,462.69Z" style="fill:#92E3A9"></path><polygon points="148.4 462.38 148.23 466.88 145.65 466.88 147.07 461.99 148.4 462.38" style="opacity:0.30000000000000004"></polygon><path d="M159.1,456.72h-2.69a1.93,1.93,0,0,0-1.54.8c-1.55,2.13-2.72,1.32-4.42-.67-1.07-.13-1.36,1.1-1.45,1.44l-2,7.33a1.16,1.16,0,0,0,.8,1.43,1.24,1.24,0,0,0,.33,0h21.37c3.4,0,4.11-3.42,2.71-3.74-6.3-1.39-10.76-3.24-12.7-5.08C159.13,458,159.5,457.71,159.1,456.72Z" style="fill:#263238"></path><path d="M162.9,460a.25.25,0,0,0-.28-.21,3.48,3.48,0,0,0-2.47,1.59.25.25,0,0,0,.08.34.22.22,0,0,0,.13,0,.24.24,0,0,0,.21-.12,3.06,3.06,0,0,1,2.12-1.36A.25.25,0,0,0,162.9,460Z" style="fill:#92E3A9"></path><path d="M164.7,460.88a3.48,3.48,0,0,0-2.46,1.59.24.24,0,0,0,.07.34.25.25,0,0,0,.14,0,.25.25,0,0,0,.21-.12,3,3,0,0,1,2.11-1.36.26.26,0,0,0,.22-.28A.25.25,0,0,0,164.7,460.88Z" style="fill:#92E3A9"></path><path d="M165.19,457.45c-.47-.34-1.76,0-2.85.42.78-.64,1.46-1.4,1.39-1.91,0-.18-.15-.4-.6-.47-1.72-.19-2.53,2.66-2.63,3.18l.06,0-.05.05a.14.14,0,0,0,.09.19l.13,0c.13-.06.28-.13.44-.22h0l0,0v0l.11-.07c1.39-.6,3.24-1.23,3.69-.92a.2.2,0,0,1,.09.21.86.86,0,0,1-.33.64c-.76.56-2.55.33-3.56.15a.1.1,0,0,1,0,.07.22.22,0,0,1-.1.22,12.25,12.25,0,0,0,2,.23,3,3,0,0,0,1.83-.41,1.12,1.12,0,0,0,.45-.89A.47.47,0,0,0,165.19,457.45Zm-2.25-1.69h.12c.35,0,.35.16.35.2.09.54-1.45,1.92-2.55,2.5C161.09,457.7,161.77,455.76,162.94,455.76Z" style="fill:#92E3A9"></path><path d="M161.18,458.69h0Z" style="fill:#92E3A9"></path><path d="M160.71,458.93l-.08,0a.17.17,0,0,1-.1,0,.16.16,0,0,1-.05-.16l0-.07a3.53,3.53,0,0,0-2,1.47.27.27,0,0,0,.08.35.33.33,0,0,0,.14,0,.25.25,0,0,0,.21-.12,3,3,0,0,1,2.11-1.36.6.6,0,0,0,.11-.06l-.39-.07Z" style="fill:#92E3A9"></path><path d="M129.29,381.76l.14-2.19h19.3l-.36,3.84Zm24.8-2.19.18.56-.72,3.66,19.17,1.77.85-6Z" style="isolation:isolate;opacity:0.2"></path><path d="M127.81,306.8s-7.2,17.36-5.91,29.42,3.89,43.35,3.89,43.35H176s-1.19-18.2-2.64-27.39-5-31.86-9.79-40.84S127.81,306.8,127.81,306.8Z" style="fill:#92E3A9"></path><path d="M149,363.51c-3.28-14.43-8.91-18.4-11.05-20.93l12.8,28.59Z" style="isolation:isolate;opacity:0.2"></path><path d="M159,279.94c.1-1,.18-1.93.25-2.87l8.95-1.69a65.33,65.33,0,0,0-5.41-13.84,6.7,6.7,0,0,0-3.62-3.17c-.77-.28-1.46-.56-2.07-.82a25,25,0,0,0-5.08-2.11c-3.21-1.05-7-1.88-7-1.88l-9.74-.53s-12,2.77-16.54,6.58c-3.47,1.88-5.08,14.17-5.08,14.17l8.76,3.79c.82,2.66,3.49,12.94,3.72,13.88a50,50,0,0,1,1.69,9.66,110,110,0,0,1-3.06,11.24s12.51,11.92,40.15.41l-4.77-12.5C159.4,295.14,158.73,282.92,159,279.94Z" style="fill:#92E3A9"></path><path d="M159,279.94c.1-1,.18-1.93.25-2.87l8.95-1.69a65.33,65.33,0,0,0-5.41-13.84,6.7,6.7,0,0,0-3.62-3.17c-.77-.28-1.46-.56-2.07-.82a25,25,0,0,0-5.08-2.11c-3.21-1.05-7-1.88-7-1.88l-9.74-.53s-12,2.77-16.54,6.58c-3.47,1.88-5.08,14.17-5.08,14.17l8.76,3.79c.82,2.66,3.49,12.94,3.72,13.88a50,50,0,0,1,1.69,9.66,110,110,0,0,1-3.06,11.24s12.51,11.92,40.15.41l-4.77-12.5C159.4,295.14,158.73,282.92,159,279.94Z" style="opacity:0.4"></path><path d="M189.05,268.47a11.06,11.06,0,0,1-2.63,2.28,16.4,16.4,0,0,1-4.41.56c-1.38-.08-1.41-2.22-1.41-2.22h-.52a5.28,5.28,0,0,0-1.56,1.89c-.43,1,.32,4.2.89,5.07l-.43.63-.07,0-7.63,10-4.4-11.05-10.64,2s4.9,12.94,7.83,18.36c3.21,5.91,8.51,7.38,12.44-1.07,1.7-3.65,3.6-7.28,5.16-10.14l0,0,4-7.15s3.33-5.26,3.37-6.3l-.13-.39a2.66,2.66,0,0,0,.58-1.34A1.28,1.28,0,0,0,189.05,268.47Z" style="fill:#895555"></path><path d="M134.75,239.8c.86,4.28,2.81,12.83-.15,15.69,0,0,1.19,4.28,9.09,4.28,8.68,0,4.12-4.28,4.12-4.28-4.75-1.13-4.65-4.64-3.84-7.94Z" style="fill:#b97964"></path><path d="M152.64,232a.44.44,0,0,1-.28-.12.38.38,0,0,1,0-.54,3.89,3.89,0,0,1,3.34-1,.38.38,0,0,1,.29.45v0a.38.38,0,0,1-.44.29h0a3,3,0,0,0-2.65.83A.32.32,0,0,1,152.64,232Z" style="fill:#263238"></path><path d="M153.82,236.91a17.29,17.29,0,0,0,1.34,4.61,2.77,2.77,0,0,1-2.37-.12Z" style="fill:#773737"></path><path d="M156,234.61l-1.62.08,0,0c-.38,0-.73.39-.87,1s.08,1.24.5,1.33.87-.33,1-1a1.81,1.81,0,0,0-.11-1C155.38,235.17,156,234.61,156,234.61Z" style="fill:#263238"></path><path d="M132.6,228.41c-1.33,8-2.06,11.29,1,16.25,4.55,7.45,14.59,7.4,18.25,0,3.3-6.64,4.91-18.52-2-23.46a10.92,10.92,0,0,0-17.19,7.21Z" style="fill:#895555"></path><path d="M142.37,217.44c6.64-2.72,13.57-.9,14.23,6s-7.1,13.47-7.1,13.47Z" style="fill:#263238"></path><path d="M145.57,235.35a6,6,0,0,0,1.21,4.35c1.29,1.62,3.13.76,3.78-1.08.59-1.65.62-4.5-1.15-5.46a2.63,2.63,0,0,0-3.55,1.14A2.53,2.53,0,0,0,145.57,235.35Z" style="fill:#895555"></path><path d="M148.84,239.37a.25.25,0,0,1-.16-.06,3.61,3.61,0,0,1-1.31-2.82,2,2,0,0,1,.29-1.06,1.14,1.14,0,0,1,1.07-.54.25.25,0,0,1,.21.28.25.25,0,0,1-.28.22.64.64,0,0,0-.58.31,1.52,1.52,0,0,0-.21.8,3.16,3.16,0,0,0,1.13,2.43.25.25,0,0,1,0,.35A.25.25,0,0,1,148.84,239.37Z" style="opacity:0.30000000000000004"></path><path d="M119.7,263.46c.06.16,1.93,11.13,5.73,12.13,1.81.48,16.35.22,16.35.22l1.29-2,2.19,2h9.24l-5.28-9.2.54-15Z" style="opacity:0.30000000000000004"></path><path d="M148.09,236.69c3.26-6.21,1.41-17.44-5.8-19.54-6.48-1.89-16.76,0-16.38,11.65s-2.32,10.39-5.25,17.84c-3.07,7.83-2.17,18.13,3,26.56h14.36l2.62-3.77,3.1,3.77h12.47c-6.15-8.54-2.47-11.87-1.73-19.62S145.28,242,148.09,236.69Z" style="fill:#263238"></path><path d="M133.32,219.29a2.68,2.68,0,0,0-2.12-1.75,3.62,3.62,0,0,0-1.45.3l-.09.61a13.53,13.53,0,0,1-1.74,2.55,2.92,2.92,0,0,0-.47,2.91,2.45,2.45,0,0,0,1.92,1.12,4,4,0,0,0,3.62-1.72A4.28,4.28,0,0,0,133.32,219.29Z" style="fill:#92E3A9"></path><path d="M131.64,223.62a9.36,9.36,0,0,0,.58-4.28,6.21,6.21,0,0,0-2.29-3.24,5.82,5.82,0,0,0-1.75-1,6.23,6.23,0,0,0-3.32,0,6.86,6.86,0,0,0-3.37,1.65,4.54,4.54,0,0,0,2.83,7.74,10,10,0,0,0-3,1.45.32.32,0,0,0-.17.22.3.3,0,0,0,.12.24,2.82,2.82,0,0,0,2.23.75,8.38,8.38,0,0,0,2.35-.6l-.71,2.36a1.35,1.35,0,0,0-.07.74c.15.55.89.67,1.45.57a6,6,0,0,0,4-3.15A12.29,12.29,0,0,0,131.64,223.62Z" style="fill:#263238"></path></g></svg>
